<svg xmlns="http://www.w3.org/2000/svg" width="17.339" height="19.18" viewBox="0 0 17.339 19.18">
    <defs>
        <style>
            .cls-1{stroke:#000;stroke-width:.5px}
        </style>
    </defs>
    <path id="_001-paperclip" d="M15.786 11.512L14.4 10.131 8.188 3.914a2.931 2.931 0 0 0-4.145 4.145l6.216 6.218a.651.651 0 0 0 .921-.921L4.964 7.138a1.628 1.628 0 0 1 2.3-2.3l6.218 6.216 1.382 1.381a2.931 2.931 0 1 1-4.146 4.145l-1.149-1.154L3.122 8.98l-.461-.46a4.233 4.233 0 0 1 5.987-5.987l6.907 6.907a.651.651 0 1 0 .921-.921L9.569 1.612A5.536 5.536 0 0 0 1.741 9.44l6.907 6.907L9.8 17.5a4.233 4.233 0 0 0 5.985-5.987zm0 0" class="cls-1" data-name="001-paperclip" transform="translate(.122 .25)"/>
</svg>
