<svg xmlns="http://www.w3.org/2000/svg" width="32" height="32" viewBox="0 0 32 32">
    <defs>
        <style>
            .cls-1,.cls-3{fill:#fff}.cls-2{fill:#f95f62;opacity:.5}.cls-3{fill-rule:evenodd}.cls-4{filter:url(#Path_1476)}.cls-5{filter:url(#Path_1504)}
        </style>
        <filter id="Path_1504" width="32" height="32" x="0" y="0" filterUnits="userSpaceOnUse">
            <feOffset dx="2" dy="2"/>
            <feGaussianBlur result="blur" stdDeviation="2"/>
            <feFlood flood-opacity=".161"/>
            <feComposite in2="blur" operator="in"/>
            <feComposite in="SourceGraphic"/>
        </filter>
        <filter id="Path_1476" width="32" height="32" x="0" y="0" filterUnits="userSpaceOnUse">
            <feOffset dx="2" dy="2"/>
            <feGaussianBlur result="blur-2" stdDeviation="2"/>
            <feFlood flood-opacity=".161"/>
            <feComposite in2="blur-2" operator="in"/>
            <feComposite in="SourceGraphic"/>
        </filter>
    </defs>
    <g id="Group_4089" data-name="Group 4089" transform="translate(20657 5113)">
        <g id="Group_4099" data-name="Group 4099">
            <g class="cls-5" transform="translate(-20657 -5113)">
                <path id="Path_1504-2" d="M10 0A10 10 0 1 1 0 10 10 10 0 0 1 10 0z" class="cls-1" data-name="Path 1504" transform="translate(4 4)"/>
            </g>
            <g class="cls-4" transform="translate(-20657 -5113)">
                <path id="Path_1476-2" d="M10 0A10 10 0 1 1 0 10 10 10 0 0 1 10 0z" class="cls-2" data-name="Path 1476" transform="translate(4 4)"/>
            </g>
            <g id="cancel-music" transform="translate(-20648 -5104)">
                <path id="Path_1474" d="M6.189 5l3.565-3.566A.84.84 0 0 0 8.566.246L5 3.811 1.435.246A.84.84 0 0 0 .246 1.434L3.812 5 .246 8.565a.84.84 0 0 0 1.189 1.188L5 6.188l3.566 3.565a.84.84 0 0 0 1.188-1.188z" class="cls-3" data-name="Path 1474"/>
            </g>
        </g>
    </g>
</svg>
