<svg xmlns="http://www.w3.org/2000/svg" width="20.129" height="24.599" viewBox="0 0 20.129 24.599">
    <defs>
        <style>
            .cls-1{fill:#000002}
        </style>
    </defs>
    <path id="mute" d="M33.907 17.231h.3a5.2 5.2 0 0 0 5.251-4.858V6.411l4.392-4.392A.932.932 0 1 0 42.529.7l-3.19 3.19A5.333 5.333 0 0 0 34.2 0h-.3a5.2 5.2 0 0 0-5.251 4.858v7.515a4.3 4.3 0 0 0 .4 1.8l-.949.95a5.547 5.547 0 0 1-.67-2.61.7.7 0 1 0-1.4 0 6.994 6.994 0 0 0 1.043 3.634L24.25 18.97a.932.932 0 1 0 1.318 1.318l2.671-2.671q.154.152.317.3a8.214 8.214 0 0 0 4.787 2.029V23.2h-2.894a.7.7 0 1 0 0 1.4h7.889a.7.7 0 0 0 0-1.4h-3.584v-3.261a8.215 8.215 0 0 0 4.787-2.029 7.267 7.267 0 0 0 2.526-5.4.7.7 0 1 0-1.4 0 5.87 5.87 0 0 1-2.055 4.354 6.755 6.755 0 0 1-4.407 1.7H33.9a6.755 6.755 0 0 1-4.407-1.7 5.762 5.762 0 0 1-.255-.239l.921-.921a5.455 5.455 0 0 0 3.748 1.527zm4.15-4.858a3.819 3.819 0 0 1-3.853 3.46h-.3a4.072 4.072 0 0 1-2.756-1.119l6.905-6.905zm-8 0V4.858a3.819 3.819 0 0 1 3.85-3.458h.3a3.819 3.819 0 0 1 3.853 3.46v.315l-7.909 7.909a2.778 2.778 0 0 1-.098-.711z" class="cls-1" transform="translate(-23.99)"/>
</svg>
