<svg xmlns="http://www.w3.org/2000/svg" id="oncall" width="30.57" height="30.571" viewBox="0 0 30.57 30.571">
    <defs>
        <style>
            .cls-1{fill:#ff6629}
        </style>
    </defs>
    <g id="_x36__16_">
        <g id="Group_345" data-name="Group 345">
            <path id="Path_276" d="M21.973 14.33h-5.732V7.643a.955.955 0 1 0-1.911 0v7.643a.956.956 0 0 0 .955.955h6.687a.955.955 0 1 0 0-1.911zM1.911 4.777a2.866 2.866 0 0 1 2.866-2.866h1.91V0h-1.91A4.777 4.777 0 0 0 0 4.777v1.91h1.911zM25.794 0h-1.911v1.911h1.911a2.866 2.866 0 0 1 2.866 2.866v1.91h1.911v-1.91A4.777 4.777 0 0 0 25.794 0zm2.866 15.285A13.375 13.375 0 1 0 8.88 27.027l-3.148 3.544H8.6l2.565-2.565a13.31 13.31 0 0 0 8.245 0l2.565 2.565h2.866l-3.148-3.543a13.37 13.37 0 0 0 6.967-11.743zM15.285 26.749a11.464 11.464 0 1 1 11.464-11.464 11.464 11.464 0 0 1-11.464 11.464z" class="cls-1" data-name="Path 276"/>
        </g>
    </g>
</svg>
