<svg xmlns="http://www.w3.org/2000/svg" width="27.239" height="27.239" viewBox="0 0 27.239 27.239">
    <defs>
        <style>
            .cls-1{fill:#1d45c7;stroke:#1d45c7}
        </style>
    </defs>
    <g id="pen" transform="translate(.5 .5)">
        <g id="Group_4054" data-name="Group 4054">
            <path id="Path_1484" d="M26.239 2.285A2.283 2.283 0 0 0 23.957 0a2.267 2.267 0 0 0-1.613.669l-.9.9a2.055 2.055 0 0 0-2.619.234L2.56 18.065a.581.581 0 0 0-.145.267h-.009L.659 24.737l-.484.484a.6.6 0 1 0 .843.843l.482-.484 6.407-1.747v-.009a.58.58 0 0 0 .267-.145L22.065 9.788l.946.946-4.946 4.946a.6.6 0 1 0 .843.843l5.367-5.367a.6.6 0 0 0 0-.843l-1.367-1.368 1.529-1.529a2.055 2.055 0 0 0 .234-2.616l.9-.9a2.267 2.267 0 0 0 .668-1.615zM2.042 24.2l1.244-4.562L6.6 22.953zm5.71-1.783l-3.927-3.93L17.294 5.018l3.928 3.928zM23.593 6.573L22.065 8.1l-3.928-3.926 1.529-1.529a.863.863 0 0 1 1.22 0l2.708 2.708a.864.864 0 0 1-.001 1.22zm1.134-3.519l-.874.874-1.541-1.543.874-.874a1.084 1.084 0 0 1 .77-.319 1.09 1.09 0 0 1 .771 1.861z" class="cls-1" data-name="Path 1484"/>
        </g>
    </g>
</svg>
