<svg xmlns="http://www.w3.org/2000/svg" id="Group_4063" width="22.816" height="85.064" data-name="Group 4063" viewBox="0 0 22.816 85.064">
    <defs>
        <style>
            .cls-1{fill:#26b706}
        </style>
    </defs>
    <path id="Path_1486" d="M483.6 127.057s.431-1.177.353-6.237.392-6 .588-6.982.51-4.315.706-8.237.627-3.922 1.137-4.864 4.432-1.844 4.982-2.079 1.216-.745 1.291-1.177 0-2.471 0-2.471a4.491 4.491 0 0 1-1.215-2.687c-.39.026-.43-.612-.443-.82a13.1 13.1 0 0 1-.26-1.614c.013-.469.59-.3.59-.3 0-3.691 1.911-4.058 3.246-4.058s3.246.367 3.246 4.058c0 0 .577-.166.59.3a13.044 13.044 0 0 1-.26 1.614c-.013.208-.052.846-.443.82a4.49 4.49 0 0 1-1.215 2.687s-.075 2.04 0 2.471.741.941 1.291 1.177 4.472 1.138 4.982 2.079.941.941 1.137 4.864.51 7.257.706 8.237.667 1.922.588 6.982.353 6.237.353 6.237.706 3.53.314 4.354-.863 1.412-1.1 1.373-.118-.471-.118-.471-.98.631-1.216.472-.314-.041-.51-.316.157-.549.157-.549a.945.945 0 0 1-.392-.275c-.157-.2 1.1-.9 1.1-1.883a11.257 11.257 0 0 1 .118-3.216c.314-1.138-1.412-4.393-1.687-7.845s.079-3.413-.2-4.55-1.451-5.177-1.451-6.55v-.157a7.467 7.467 0 0 1-.824 2.51c-.51.588-.785 4.354-.628 4.825s3.02 6.864 2.981 11.061-1.914 12.042-1.82 13.415.6 5.531.643 8.9-2.275 11.3-2.2 14.788 1.412 5.727 1.02 6.354a3.168 3.168 0 0 1-2.079 1.02.826.826 0 0 1-.863.235c-.549-.157-.706-1.491-.588-2.942a13.889 13.889 0 0 0-.2-4.2c-.275-.824.98-1.922.784-3.217s.236-2.314-.314-5.766a27.531 27.531 0 0 1-.078-8.63c.353-1.687-.432-5.374-.745-6.472s-1.091-9.213-1.091-9.213-.777 8.115-1.091 9.213-1.1 4.785-.745 6.472a27.529 27.529 0 0 1-.078 8.63c-.549 3.451-.118 4.471-.314 5.766s1.059 2.393.784 3.217a13.883 13.883 0 0 0-.2 4.2c.118 1.451-.039 2.785-.588 2.942a.827.827 0 0 1-.863-.235 3.168 3.168 0 0 1-2.079-1.02c-.392-.628.941-2.864 1.02-6.354s-2.236-11.414-2.2-14.788.549-7.531.643-8.9-1.78-9.218-1.82-13.415 2.824-10.591 2.981-11.061-.118-4.236-.628-4.825a7.468 7.468 0 0 1-.824-2.51v.157c0 1.373-1.177 5.413-1.451 6.55s.079 1.1-.2 4.55-2 6.707-1.687 7.845a11.257 11.257 0 0 1 .118 3.216c0 .981 1.255 1.687 1.1 1.883a.945.945 0 0 1-.392.275s.353.275.157.549-.275.157-.51.316-1.216-.472-1.216-.472.118.431-.118.471-.706-.549-1.1-1.373.338-4.354.338-4.354z" class="cls-1" data-name="Path 1486" transform="translate(-483.172 -85.529)"/>
    <path id="Path_1487" d="M483.6 127.057s.431-1.177.353-6.237.392-6 .588-6.982.51-4.315.706-8.237.627-3.922 1.137-4.864 4.432-1.844 4.982-2.079 1.216-.745 1.291-1.177 0-2.471 0-2.471a4.491 4.491 0 0 1-1.215-2.687c-.39.026-.43-.612-.443-.82a13.1 13.1 0 0 1-.26-1.614c.013-.469.59-.3.59-.3 0-3.691 1.911-4.058 3.246-4.058s3.246.367 3.246 4.058c0 0 .577-.166.59.3a13.044 13.044 0 0 1-.26 1.614c-.013.208-.052.846-.443.82a4.49 4.49 0 0 1-1.215 2.687s-.075 2.04 0 2.471.741.941 1.291 1.177 4.472 1.138 4.982 2.079.941.941 1.137 4.864.51 7.257.706 8.237.667 1.922.588 6.982.353 6.237.353 6.237.706 3.53.314 4.354-.863 1.412-1.1 1.373-.118-.471-.118-.471-.98.631-1.216.472-.314-.041-.51-.316.157-.549.157-.549a.945.945 0 0 1-.392-.275c-.157-.2 1.1-.9 1.1-1.883a11.257 11.257 0 0 1 .118-3.216c.314-1.138-1.412-4.393-1.687-7.845s.079-3.413-.2-4.55-1.451-5.177-1.451-6.55v-.157a7.467 7.467 0 0 1-.824 2.51c-.51.588-.785 4.354-.628 4.825s3.02 6.864 2.981 11.061-1.914 12.042-1.82 13.415.6 5.531.643 8.9-2.275 11.3-2.2 14.788 1.412 5.727 1.02 6.354a3.168 3.168 0 0 1-2.079 1.02.826.826 0 0 1-.863.235c-.549-.157-.706-1.491-.588-2.942a13.889 13.889 0 0 0-.2-4.2c-.275-.824.98-1.922.784-3.217s.236-2.314-.314-5.766a27.531 27.531 0 0 1-.078-8.63c.353-1.687-.432-5.374-.745-6.472s-1.091-9.213-1.091-9.213-.777 8.115-1.091 9.213-1.1 4.785-.745 6.472a27.529 27.529 0 0 1-.078 8.63c-.549 3.451-.118 4.471-.314 5.766s1.059 2.393.784 3.217a13.883 13.883 0 0 0-.2 4.2c.118 1.451-.039 2.785-.588 2.942a.827.827 0 0 1-.863-.235 3.168 3.168 0 0 1-2.079-1.02c-.392-.628.941-2.864 1.02-6.354s-2.236-11.414-2.2-14.788.549-7.531.643-8.9-1.78-9.218-1.82-13.415 2.824-10.591 2.981-11.061-.118-4.236-.628-4.825a7.468 7.468 0 0 1-.824-2.51v.157c0 1.373-1.177 5.413-1.451 6.55s.079 1.1-.2 4.55-2 6.707-1.687 7.845a11.257 11.257 0 0 1 .118 3.216c0 .981 1.255 1.687 1.1 1.883a.945.945 0 0 1-.392.275s.353.275.157.549-.275.157-.51.316-1.216-.472-1.216-.472.118.431-.118.471-.706-.549-1.1-1.373.338-4.354.338-4.354z" class="cls-1" data-name="Path 1487" transform="translate(-483.172 -85.529)"/>
</svg>
