<svg xmlns="http://www.w3.org/2000/svg" width="145.002" height="145.001" viewBox="0 0 145.002 145.001">
    <defs>
        <style>
            .cls-1{fill:#f95f62}
        </style>
    </defs>
    <path id="Subtraction_3" d="M18167.5 844a72.154 72.154 0 0 1-40.535-12.382 72.861 72.861 0 0 1-19.582-19.583 72.412 72.412 0 0 1 0-81.071 72.711 72.711 0 0 1 31.9-26.268 72.4 72.4 0 0 1 68.756 6.685 72.693 72.693 0 0 1 26.268 31.9 72.413 72.413 0 0 1-6.684 68.756 72.727 72.727 0 0 1-31.9 26.268A72.053 72.053 0 0 1 18167.5 844zm22.947-112.98a32.011 32.011 0 0 0-11.443 2.421 79.363 79.363 0 0 0-23.594 14.163 90.04 90.04 0 0 0-12.9 13.309 87.724 87.724 0 0 0-9.8 15.713 54.68 54.68 0 0 0-3.146 7.8 34.287 34.287 0 0 0-1.531 8.28 13.875 13.875 0 0 0 .688 5.5 11.087 11.087 0 0 0 3.162 4.608c1.391 1.242 2.721 2.611 4.006 3.934l.025.026.047.047c.633.652 1.287 1.326 1.941 1.976a6.912 6.912 0 0 0 4.807 2.22 6.758 6.758 0 0 0 4.734-2.184c3.061-3.041 6.105-6.1 9.219-9.232l1.295-1.3a6.2 6.2 0 0 0 0-9.375l-.641-.645c-2.1-2.114-3.99-4.016-5.914-5.892a1.279 1.279 0 0 1-.33-1.8c.3-.548.58-1.125.848-1.669a29.023 29.023 0 0 1 1.4-2.621 67.762 67.762 0 0 1 14.914-16.393 38.367 38.367 0 0 1 9.412-5.873 1.833 1.833 0 0 1 .719-.176 1.421 1.421 0 0 1 1.012.506c1.9 1.968 3.914 3.961 5.691 5.719l.771.763a6.222 6.222 0 0 0 9.594-.018c.738-.73 1.484-1.476 2.207-2.2l.445-.445c.795-.8 1.648-1.65 2.5-2.495.465-.464.936-.932 1.4-1.392l.43-.427c1.193-1.184 2.359-2.341 3.477-3.482a6.25 6.25 0 0 0-.018-9.375 280.766 280.766 0 0 0-2.619-2.617 195.032 195.032 0 0 1-3.918-3.956 10.645 10.645 0 0 0-7.2-3.355 23.726 23.726 0 0 0-1.69-.061zM18194 783a14 14 0 1 0 9.9 4.1 13.91 13.91 0 0 0-9.9-4.1zm0 24.5a10.513 10.513 0 0 1-10.5-10.5 10.391 10.391 0 0 1 1.953-6.075l14.627 14.626a10.459 10.459 0 0 1-6.08 1.949zm8.547-4.422l-14.621-14.625a10.482 10.482 0 0 1 14.621 14.625z" class="cls-1" data-name="Subtraction 3" transform="translate(-18095 -699.001)"/>
</svg>
