<svg xmlns="http://www.w3.org/2000/svg" width="145.002" height="145.001" viewBox="0 0 145.002 145.001">
    <defs>
        <style>
            .cls-1{fill:#77d353}
        </style>
    </defs>
    <path id="Subtraction_1" d="M18167.5 844a72.154 72.154 0 0 1-40.535-12.382 72.861 72.861 0 0 1-19.582-19.583 72.412 72.412 0 0 1 0-81.071 72.711 72.711 0 0 1 31.9-26.268 72.4 72.4 0 0 1 68.756 6.685 72.693 72.693 0 0 1 26.268 31.9 72.413 72.413 0 0 1-6.684 68.756 72.727 72.727 0 0 1-31.9 26.268A72.053 72.053 0 0 1 18167.5 844zm-27.232-102.349a6.061 6.061 0 0 0-4.238 1.925c-.775.762-1.527 1.522-2.363 2.366-1.092 1.105-2.33 2.358-3.578 3.544a9.611 9.611 0 0 0-3.031 6.509 27.946 27.946 0 0 0 2.129 11.87 71.737 71.737 0 0 0 12.8 21.323 81.4 81.4 0 0 0 12.035 11.664 79.188 79.188 0 0 0 14.205 8.866 49.507 49.507 0 0 0 7.049 2.842 30.958 30.958 0 0 0 7.484 1.383c.311.018.623.027.93.027a10.377 10.377 0 0 0 8.207-3.506c1.105-1.234 2.324-2.418 3.5-3.563l.016-.015.016-.016c.619-.6 1.26-1.227 1.877-1.849a6.239 6.239 0 0 0 2.008-4.324 6.1 6.1 0 0 0-1.977-4.3 1731.078 1731.078 0 0 0-8.475-8.463l-.182-.181-.865-.859a5.6 5.6 0 0 0-8.473 0c-1.951 1.933-3.965 3.928-5.91 5.923a1.34 1.34 0 0 1-.953.512 1.383 1.383 0 0 1-.676-.21 40.843 40.843 0 0 0-1.559-.794l-.012-.006c-.773-.381-1.574-.775-2.312-1.233a61.2 61.2 0 0 1-14.812-13.486 34.616 34.616 0 0 1-5.311-8.505 1.212 1.212 0 0 1 .3-1.566c1.668-1.613 3.332-3.292 4.941-4.915l.02-.02.877-.884.021-.022a5.627 5.627 0 0 0-.018-8.675c-.869-.879-1.756-1.767-2.584-2.6l-.248-.248c-.6-.6-1.207-1.209-1.811-1.817l-.525-.527q-.416-.418-.83-.837c-1.055-1.063-2.25-2.268-3.441-3.434a6.1 6.1 0 0 0-4.231-1.897zm27.191 8.3l-.863 6.174a21.317 21.317 0 0 1 18.051 17.5l6.143-1.048a27.574 27.574 0 0 0-23.328-22.623zm.82-15.985l-.863 6.179a39.527 39.527 0 0 1 33.443 32.41l6.143-1.048a45.8 45.8 0 0 0-38.721-37.541z" class="cls-1" data-name="Subtraction 1" transform="translate(-18095 -699.001)"/>
</svg>
